<svg xmlns="http://www.w3.org/2000/svg" width="265.11" height="215.45" viewBox="0 0 265 216"><path fill="#ffffff" d="M265.11 25.5c-9.75 4.33-20.23 7.25-31.24 8.56 11.23-6.73 19.86-17.39 23.92-30.09a108.763 108.763 0 01-34.54 13.2C213.33 6.6 199.19 0 183.55 0c-30.04 0-54.39 24.35-54.39 54.39 0 4.26.48 8.41 1.4 12.39-45.2-2.27-85.28-23.92-112.11-56.83-4.68 8.03-7.36 17.38-7.36 27.34 0 18.88 9.6 35.52 24.2 45.28a54.179 54.179 0 01-24.64-6.8c-.01.22-.01.45-.01.68 0 26.35 18.75 48.33 43.64 53.33a54.216 54.216 0 01-14.33 1.91c-3.51 0-6.92-.34-10.24-.97 6.92 21.6 27.01 37.33 50.81 37.77-18.61 14.59-42.07 23.28-67.55 23.28-4.39 0-8.72-.26-12.97-.76 24.07 15.44 52.66 24.44 83.37 24.44 100.05 0 154.76-82.88 154.76-154.76 0-2.36-.05-4.7-.16-7.04 10.63-7.66 19.85-17.24 27.14-28.15" fill="#fefefe"/></svg>
