<svg xmlns="http://www.w3.org/2000/svg" width="173.41" height="216.9" viewBox="0 0 173.41 216.9">
	<style type="text/css">
		.st0{fill:#fefefe;fill-rule:evenodd;}
	</style>
	<path class="st0" d="M53.92,176.97C81.72,176.97 116.07,181.55 116.67,149.99C117.3,117.06 81.39,123.01 53.94,123.01ZM53.94,56.98L53.93,85.15C79.3,85.15 103.14,88.49 103.14,60.98C103.14,35.51 76.17,39.71 53.91,39.71ZM0.41,0L98.91,0C131.32,0 158.91,15.87 158.89,47.98C158.86,74.79 149.15,85.22 129.21,97.01C130.92,98.41 142.34,101.82 146.18,103.71C152.33,106.74 155.94,109.8 159.98,113.91C171.3,125.42 173.41,135.93 173.41,153.98C173.41,195.85 132.91,216.9 93.91,216.9L0,216.9Z"/>
</svg>