<svg xmlns="http://www.w3.org/2000/svg" width="265.11" height="215.45" viewBox="0 0 265.11 215.45">
	<style type="text/css">
		.st0{fill:#fefefe;}
	</style>
	<path class="st0" d="M265.11,25.5C255.36,29.83 244.88,32.75 233.87,34.06C245.1,27.33 253.73,16.67 257.79,3.97C247.28,10.21 235.64,14.73 223.25,17.17C213.33,6.6 199.19,0 183.55,0C153.51,0 129.16,24.35 129.16,54.39C129.16,58.65 129.64,62.8 130.56,66.78C85.36,64.51 45.28,42.86 18.45,9.95C13.77,17.98 11.09,27.33 11.09,37.29C11.09,56.17 20.69,72.81 35.29,82.57C26.37,82.29 17.98,79.84 10.65,75.77C10.64,75.99 10.64,76.22 10.64,76.45C10.64,102.8 29.39,124.78 54.28,129.78C49.71,131.03 44.91,131.69 39.95,131.69C36.44,131.69 33.03,131.35 29.71,130.72C36.63,152.32 56.72,168.05 80.52,168.49C61.91,183.08 38.45,191.77 12.97,191.77C8.58,191.77 4.25,191.51 0,191.01C24.07,206.45 52.66,215.45 83.37,215.45C183.42,215.45 238.13,132.57 238.13,60.69C238.13,58.33 238.08,55.99 237.97,53.65C248.6,45.99 257.82,36.41 265.11,25.5"/>
</svg>