<svg version="1.0" xmlns="http://www.w3.org/2000/svg" width="22.667" height="17.333" viewBox="0 0 17 13"><path fill="#006ce7" d="M0 3c0 2.8.2 3 4 3s4-.2 4-3-.2-3-4-3-4 .2-4 3zm9 2.3c0 3.1.1 3.2 4 3.2 3.2 0 4-.3 4-1.7 0-1-.7-1.8-1.5-1.8S14 4.3 14 3.5c0-.9-.9-1.5-2.5-1.5C9.3 2 9 2.4 9 5.3zM0 7.8c0 .4 1.8.7 4 .7s4-.3 4-.7C8 7.3 6.2 7 4 7s-4 .3-4 .8zM3 10c0 .5.5 1 1 1 .6 0 1-.5 1-1 0-.6-.4-1-1-1-.5 0-1 .4-1 1zm9 0c0 .5.5 1 1 1 .6 0 1-.5 1-1 0-.6-.4-1-1-1-.5 0-1 .4-1 1zm-7.7 2.7c2.6.2 6.7.2 9 0s.2-.3-4.8-.3-6.8.1-4.2.3z"/></svg>