<svg xmlns="http://www.w3.org/2000/svg" width="121.89" height="252.58" viewBox="0 0 121.89 252.58">
	<style type="text/css">
		.st0{fill:#fefefe;}
	</style>
	<path class="st0" d="M0,83.53L26.12,83.53L26.12,71.68L26.12,60.07L26.12,58.13C26.12,46.96 26.4,29.69 34.53,19C43.09,7.68 54.85,0 75.06,0C108,0 121.89,4.69 121.89,4.69L115.36,43.38C115.36,43.38 104.48,40.24 94.32,40.24C84.16,40.24 75.06,43.86 75.06,54.02L75.06,58.13L75.06,71.68L75.06,83.53L116.71,83.53L113.81,121.31L75.06,121.31L75.06,252.58L26.12,252.58L26.12,121.31L0,121.31Z"/>
</svg>