<svg xmlns="http://www.w3.org/2000/svg" xmlns:xlink="http://www.w3.org/1999/xlink"><symbol id="sign_chosen" viewBox="0 0 18 24"><path fill="#000000" d="M6.2 2.3C3.9 4.7 3 7.4 5.2 5.2 7.4 3 8 4 8 10.1c0 3.7.4 5.8 1 5.4.6-.3 1-3.4 1-6.7 0-5.9.1-6 1.8-4.5 3.2 2.9 3.7 1.8.7-1.3C9-.6 8.9-.6 6.2 2.3z"/><path d="M0 17v7h18v-7c0-7 0-7-2.7-6.9-1.7.1-2.1.3-1 .6 1.3.4 1.7 1.5 1.7 5.9V22H2v-5.4c0-4.9.2-5.5 2.3-5.9 1.6-.3 1.3-.5-1-.6L0 10v7z"/></symbol><symbol id="sign_delivery" viewBox="0 0 17 13"><path fill="#006ce7" d="M0 3c0 2.8.2 3 4 3s4-.2 4-3-.2-3-4-3-4 .2-4 3zm9 2.3c0 3.1.1 3.2 4 3.2 3.2 0 4-.3 4-1.7 0-1-.7-1.8-1.5-1.8S14 4.3 14 3.5c0-.9-.9-1.5-2.5-1.5C9.3 2 9 2.4 9 5.3zM0 7.8c0 .4 1.8.7 4 .7s4-.3 4-.7C8 7.3 6.2 7 4 7s-4 .3-4 .8zM3 10c0 .5.5 1 1 1 .6 0 1-.5 1-1 0-.6-.4-1-1-1-.5 0-1 .4-1 1zm9 0c0 .5.5 1 1 1 .6 0 1-.5 1-1 0-.6-.4-1-1-1-.5 0-1 .4-1 1zm-7.7 2.7c2.6.2 6.7.2 9 0s.2-.3-4.8-.3-6.8.1-4.2.3z"/></symbol><symbol id="sign_down" viewBox="0 0 11 7"><path fill="#1a1a1a" d="M0 .6c0 .6 1.3 2.2 2.8 3.7L5.6 7l2.9-3C10.1 2.4 11.1.8 10.8.5c-.2-.3-1.5.6-2.8 2L5.6 5 2.8 2.3C1.3.8 0 .1 0 .6z"/></symbol><symbol id="sign_ok" viewBox="0 0 14 10"><path fill="#006ce7" d="M9 3.5L5.6 7 3.3 4.8C-.1 1.6-.8 3.5 2.5 7l2.9 3 4.3-4.2c2.4-2.3 4.3-4.6 4.3-5 0-1.6-1.7-.7-5 2.7z"/></symbol></svg>