<svg xmlns="http://www.w3.org/2000/svg" xmlns:xlink="http://www.w3.org/1999/xlink"><symbol id="sign_chosen" viewBox="0 0 18 24"><path d="M6.2 2.3C3.9 4.7 3 7.4 5.2 5.2 7.4 3 8 4 8 10.1c0 3.7.4 5.8 1 5.4.6-.3 1-3.4 1-6.7 0-5.9.1-6 1.8-4.5 3.2 2.9 3.7 1.8.7-1.3C9-.6 8.9-.6 6.2 2.3z"/><path d="M0 17v7h18v-7c0-7 0-7-2.7-6.9-1.7.1-2.1.3-1 .6 1.3.4 1.7 1.5 1.7 5.9V22H2v-5.4c0-4.9.2-5.5 2.3-5.9 1.6-.3 1.3-.5-1-.6L0 10v7z"/></symbol><symbol id="sign_comments" viewBox="0 0 47 33"><path fill="#efefef" d="M6 2h40v30H6V2zm4.5 6.307l9.192 9.193-9.192 9.192L1.308 17.5 10.5 8.307z"/></symbol><symbol id="sign_delivery" viewBox="0 0 17 13"><path fill="#006ce7" d="M0 3c0 2.8.2 3 4 3s4-.2 4-3-.2-3-4-3-4 .2-4 3zm9 2.3c0 3.1.1 3.2 4 3.2 3.2 0 4-.3 4-1.7 0-1-.7-1.8-1.5-1.8S14 4.3 14 3.5c0-.9-.9-1.5-2.5-1.5C9.3 2 9 2.4 9 5.3zM0 7.8c0 .4 1.8.7 4 .7s4-.3 4-.7C8 7.3 6.2 7 4 7s-4 .3-4 .8zM3 10c0 .5.5 1 1 1 .6 0 1-.5 1-1 0-.6-.4-1-1-1-.5 0-1 .4-1 1zm9 0c0 .5.5 1 1 1 .6 0 1-.5 1-1 0-.6-.4-1-1-1-.5 0-1 .4-1 1zm-7.7 2.7c2.6.2 6.7.2 9 0s.2-.3-4.8-.3-6.8.1-4.2.3z"/></symbol><symbol id="sign_down" viewBox="0 0 11 7"><path fill="#1a1a1a" d="M0 .6c0 .6 1.3 2.2 2.8 3.7L5.6 7l2.9-3C10.1 2.4 11.1.8 10.8.5c-.2-.3-1.5.6-2.8 2L5.6 5 2.8 2.3C1.3.8 0 .1 0 .6z"/></symbol><symbol id="sign_fb" viewBox="0 0 122 253"><path fill="#ffffff" d="M0 83.53h26.12V58.13c0-11.17.28-28.44 8.41-39.13C43.09 7.68 54.85 0 75.06 0c32.94 0 46.83 4.69 46.83 4.69l-6.53 38.69s-10.88-3.14-21.04-3.14c-10.16 0-19.26 3.62-19.26 13.78V83.53h41.65l-2.9 37.78H75.06v131.27H26.12V121.31H0z"/></symbol><symbol id="sign_g" viewBox="0 0 57 57"><path fill="#ffffff" d="M52.218 25.852h-7.512v-7.51c0-.573-.465-1.039-1.037-1.039H41.53a1.04 1.04 0 00-1.041 1.039v7.51h-7.512c-.572 0-1.039.467-1.039 1.041v2.139a1.04 1.04 0 001.039 1.039h7.512v7.514a1.04 1.04 0 001.041 1.039h2.139c.572 0 1.037-.465 1.037-1.039V30.07h7.512a1.04 1.04 0 001.039-1.039v-2.139a1.04 1.04 0 00-1.039-1.04z"/><path fill="#ffffff" d="M26.974 32.438c-1.58-1.119-3.016-2.76-3.041-3.264 0-.918.082-1.357 2.141-2.961 2.662-2.084 4.128-4.824 4.128-7.719 0-2.625-.802-4.957-2.167-6.595h1.059c.219 0 .434-.068.609-.196l2.955-2.141c.367-.263.521-.732.381-1.161a1.042 1.042 0 00-.988-.72H18.835c-1.446 0-2.915.255-4.357.751-4.816 1.661-8.184 5.765-8.184 9.978 0 5.969 4.624 10.493 10.805 10.635a5.623 5.623 0 00-.182 1.396c0 .92.233 1.791.713 2.633h-.17c-5.892 0-11.21 2.891-13.229 7.193-.526 1.119-.794 2.25-.794 3.367a6.33 6.33 0 00.826 3.113c1.269 2.27 3.994 4.031 7.677 4.961 1.901.48 3.944.725 6.065.725 1.906 0 3.723-.246 5.403-.732 5.238-1.521 8.625-5.377 8.625-9.828-.001-4.271-1.374-6.828-5.059-9.435zm-16.691 9.777c0-3.107 3.947-5.832 8.446-5.832h.121c.979.012 1.934.156 2.834.432.309.213.607.416.893.611 2.084 1.42 3.461 2.357 3.844 3.861.09.379.135.758.135 1.125 0 3.869-2.885 5.83-8.578 5.83-4.315 0-7.695-2.646-7.695-6.027zm4.094-29.357c.703-.803 1.624-1.227 2.658-1.227l.117.002c2.921.086 5.716 3.341 6.23 7.256.289 2.192-.199 4.253-1.301 5.509-.705.805-1.613 1.229-2.689 1.229h-.049c-2.861-.088-5.716-3.467-6.227-7.377-.287-2.186.173-4.151 1.261-5.392z"/></symbol><symbol id="sign_ok" viewBox="0 0 14 10"><path fill="#006ce7" d="M9 3.5L5.6 7 3.3 4.8C-.1 1.6-.8 3.5 2.5 7l2.9 3 4.3-4.2c2.4-2.3 4.3-4.6 4.3-5 0-1.6-1.7-.7-5 2.7z"/></symbol><symbol id="sign_tw" viewBox="0 0 265 216"><path fill="#ffffff" d="M265.11 25.5c-9.75 4.33-20.23 7.25-31.24 8.56 11.23-6.73 19.86-17.39 23.92-30.09a108.763 108.763 0 01-34.54 13.2C213.33 6.6 199.19 0 183.55 0c-30.04 0-54.39 24.35-54.39 54.39 0 4.26.48 8.41 1.4 12.39-45.2-2.27-85.28-23.92-112.11-56.83-4.68 8.03-7.36 17.38-7.36 27.34 0 18.88 9.6 35.52 24.2 45.28a54.179 54.179 0 01-24.64-6.8c-.01.22-.01.45-.01.68 0 26.35 18.75 48.33 43.64 53.33a54.216 54.216 0 01-14.33 1.91c-3.51 0-6.92-.34-10.24-.97 6.92 21.6 27.01 37.33 50.81 37.77-18.61 14.59-42.07 23.28-67.55 23.28-4.39 0-8.72-.26-12.97-.76 24.07 15.44 52.66 24.44 83.37 24.44 100.05 0 154.76-82.88 154.76-154.76 0-2.36-.05-4.7-.16-7.04 10.63-7.66 19.85-17.24 27.14-28.15"/></symbol><symbol id="sign_vk" viewBox="0 0 174 217"><path fill="#ffffff" d="M53.92 176.97c27.8 0 62.15 4.58 62.75-26.98.63-32.93-35.28-26.98-62.73-26.98zm.02-119.99l-.01 28.17c25.37 0 49.21 3.34 49.21-24.17 0-25.47-26.97-21.27-49.23-21.27zM.41 0h98.5c32.41 0 60 15.87 59.98 47.98-.03 26.81-9.74 37.24-29.68 49.03 1.71 1.4 13.13 4.81 16.97 6.7 6.15 3.03 9.76 6.09 13.8 10.2 11.32 11.51 13.43 22.02 13.43 40.07 0 41.87-40.5 62.92-79.5 62.92H0z"/></symbol></svg>